# Blender v3.1.2 OBJ File: 'fire.blend'
# www.blender.org
mtllib fire.mtl
o Fire.001_Icosphere.011
v 0.529486 0.356232 0.584403
v -0.556647 0.272469 0.716640
v -0.852741 0.346088 -0.197480
v 0.060452 0.428001 -0.697108
v 0.682414 0.343045 -0.202376
v -0.246931 0.551639 0.023891
v 1.318342 0.000000 0.428348
v 1.318342 0.000000 -0.428348
v 0.000000 0.000000 1.386184
v 0.814779 0.000000 1.121446
v -1.318342 0.000000 0.428348
v -0.814779 0.000000 1.121446
v -0.814779 0.000000 -1.121446
v -1.318342 0.000000 -0.428348
v 0.814779 0.000000 -1.121446
v 0.000000 0.000000 -1.386184
v 0.635523 0.368962 0.333041
v -0.317218 0.285431 0.919133
v -0.867230 0.463195 0.162066
v -0.691392 0.285777 -0.385788
v 0.358337 0.336776 -0.608769
v -0.330913 0.512295 0.643641
v 0.298843 0.477846 0.083065
v -0.587644 0.507630 0.314256
v -0.532737 0.393999 -0.025488
v 0.047024 0.533526 -0.460921
vt 0.409092 0.236191
vt 0.454546 0.314921
vt 0.363637 0.314921
vt 0.500000 0.236191
vt 0.545455 0.314921
vt 0.590909 0.236191
vt 0.636364 0.314921
vt 0.681818 0.236191
vt 0.727273 0.314921
vt 0.772727 0.236191
vt 0.818182 0.314921
vt 0.863636 0.236191
vt 0.909091 0.314921
vt 0.045455 0.236191
vt 0.090910 0.314921
vt 0.000000 0.314921
vt 0.136365 0.236191
vt 0.181819 0.314921
vt 0.227273 0.236191
vt 0.272728 0.314921
vt 0.318182 0.236191
vt 0.954545 0.236191
vt 0.227273 0.393651
vt 0.045455 0.393651
vt 0.772727 0.393651
vt 0.590909 0.393651
vt 0.409092 0.393651
vt 0.500000 0.393651
vt 0.681818 0.393651
vt 0.863636 0.393651
vt 0.136365 0.393651
vt 0.318182 0.393651
vt 0.454546 0.472382
vt 0.636364 0.472382
vt 0.818182 0.472382
vt 0.090910 0.472382
vt 0.272728 0.472382
vn 0.3658 0.8792 -0.3053
vn 0.3631 0.8936 -0.2638
vn 0.3546 0.8946 -0.2719
vn -0.3487 0.8096 -0.4722
vn -0.1116 0.9325 -0.3435
vn -0.0621 0.9338 -0.3523
vn -0.4742 0.8313 -0.2899
vn -0.7164 0.6977 0.0000
vn -0.4539 0.7332 0.5064
vn -0.3504 0.8651 0.3589
vn -0.1966 0.7715 0.6050
vn 0.1095 0.8795 0.4631
vn 0.5220 0.8120 0.2613
vn 0.4195 0.8551 0.3048
vn 0.4755 0.8797 -0.0009
vn 0.1724 0.8299 -0.5306
vn -0.4528 0.8287 -0.3290
vn -0.4212 0.8538 0.3060
vn 0.1580 0.8595 0.4862
vn 0.4748 0.8801 0.0000
vn 0.1855 0.9743 0.1276
vn -0.4446 0.7580 0.4772
vn 0.0236 0.9509 -0.3088
vn -0.3278 0.8555 -0.4009
vn 0.2053 0.9623 -0.1786
vn 0.4828 0.8653 -0.1349
vn 0.3694 0.8561 -0.3615
vn -0.3276 0.9349 -0.1366
vn 0.0147 0.9558 -0.2936
vn 0.0202 0.9491 -0.3142
vn -0.3893 0.7819 0.4869
vn -0.6527 0.5686 0.5007
vn 0.1812 0.7636 0.6198
vn 0.1947 0.9678 0.1593
vn 0.3196 0.9474 -0.0179
vn 0.1295 0.9907 0.0415
vn -0.4236 0.8585 -0.2889
vn -0.4059 0.8450 -0.3482
vn -0.0844 0.9951 0.0517
vn 0.1251 0.9889 0.0797
usemtl Fire.001
s off
f 8/1/1 21/2/1 5/3/1
f 8/1/2 15/4/2 21/2/2
f 15/4/3 4/5/3 21/2/3
f 16/6/4 20/7/4 4/5/4
f 16/6/5 13/8/5 20/7/5
f 13/8/6 3/9/6 20/7/6
f 14/10/7 19/11/7 3/9/7
f 14/10/8 11/12/8 19/11/8
f 11/12/9 2/13/9 19/11/9
f 12/14/10 18/15/10 2/16/10
f 12/14/11 9/17/11 18/15/11
f 9/17/12 1/18/12 18/15/12
f 10/19/13 17/20/13 1/18/13
f 10/19/14 7/21/14 17/20/14
f 7/21/15 5/3/15 17/20/15
f 15/4/16 16/6/16 4/5/16
f 13/8/17 14/10/17 3/9/17
f 11/12/18 12/22/18 2/13/18
f 9/17/19 10/19/19 1/18/19
f 7/21/20 8/1/20 5/3/20
usemtl Fire.002
f 1/18/21 17/20/21 22/23/21
f 2/16/22 18/15/22 24/24/22
f 3/9/23 19/11/23 25/25/23
f 4/5/24 20/7/24 26/26/24
f 5/3/25 21/2/25 23/27/25
f 23/27/26 21/2/26 26/28/26
f 21/2/27 4/5/27 26/28/27
f 26/26/28 20/7/28 25/29/28
f 20/7/29 3/9/29 25/29/29
f 25/25/30 19/11/30 24/30/30
f 19/11/31 2/13/31 24/30/31
f 24/24/32 18/15/32 22/31/32
f 18/15/33 1/18/33 22/31/33
f 22/23/34 17/20/34 23/32/34
f 17/20/35 5/3/35 23/32/35
usemtl Fire.003
f 23/27/36 26/28/36 6/33/36
f 26/26/37 25/29/37 6/34/37
f 25/25/38 24/30/38 6/35/38
f 24/24/39 22/31/39 6/36/39
f 22/23/40 23/32/40 6/37/40
