# Blender v3.1.2 OBJ File: 'fireplace_empty.blend'
# www.blender.org
mtllib fireplace_empty.mtl
o Stone.010_Icosphere.009
v 0.580456 -0.088129 1.321543
v 1.118698 0.834909 1.010468
v 1.557327 0.294300 1.793518
v 1.155050 -0.280002 2.006111
v -0.101551 0.083871 1.834063
v 0.201311 0.886716 1.413405
v 1.451176 0.991357 1.624274
v 1.390449 0.193841 2.567084
v 0.330034 0.047422 2.617080
v -0.089150 0.903744 2.125210
v 0.589933 1.404158 1.794441
v 1.003729 0.959702 2.381784
vt 0.181819 0.000000
vt 0.272728 0.157461
vt 0.090910 0.157461
vt 0.363637 0.000000
vt 0.454546 0.157461
vt 0.909091 0.000000
vt 1.000000 0.157461
vt 0.818182 0.157461
vt 0.727273 0.000000
vt 0.636364 0.157461
vt 0.545455 0.000000
vt 0.363637 0.314921
vt 0.181819 0.314921
vt 0.909091 0.314921
vt 0.727273 0.314921
vt 0.545455 0.314921
vt 0.000000 0.314921
vt 0.272728 0.472382
vt 0.090910 0.472382
vt 0.818182 0.472382
vt 0.636364 0.472382
vt 0.454546 0.472382
vn 0.5281 -0.5312 -0.6625
vn -0.4045 -0.0714 -0.9117
vn 0.5264 -0.5939 -0.6083
vn -0.2728 -0.9612 -0.0404
vn -0.6190 -0.1684 -0.7671
vn -0.2577 0.6909 -0.6755
vn 0.8773 0.0172 -0.4796
vn 0.8327 -0.5429 0.1091
vn -0.2909 -0.9497 0.1161
vn -0.9145 0.1476 -0.3767
vn 0.3315 0.8556 -0.3976
vn 0.9518 0.2011 0.2315
vn 0.1368 -0.7843 0.6051
vn -0.8683 -0.1543 0.4714
vn -0.6546 0.7007 -0.2839
vn 0.4600 0.8333 0.3065
vn 0.7432 0.4864 0.4593
vn 0.0125 0.2411 0.9704
vn -0.2289 0.3982 0.8883
vn -0.1950 0.7111 0.6755
usemtl Stone
s off
f 1/1/1 2/2/1 3/3/1
f 2/2/2 1/4/2 6/5/2
f 1/6/3 3/7/3 4/8/3
f 1/9/4 4/8/4 5/10/4
f 1/11/5 5/10/5 6/5/5
f 2/2/6 6/5/6 11/12/6
f 3/3/7 2/2/7 7/13/7
f 4/8/8 3/7/8 8/14/8
f 5/10/9 4/8/9 9/15/9
f 6/5/10 5/10/10 10/16/10
f 2/2/11 11/12/11 7/13/11
f 3/3/12 7/13/12 8/17/12
f 4/8/13 8/14/13 9/15/13
f 5/10/14 9/15/14 10/16/14
f 6/5/15 10/16/15 11/12/15
f 7/13/16 11/12/16 12/18/16
f 8/17/17 7/13/17 12/19/17
f 9/15/18 8/14/18 12/20/18
f 10/16/19 9/15/19 12/21/19
f 11/12/20 10/16/20 12/22/20
o Stone.009_Icosphere.008
v -0.842703 -0.207539 -2.287839
v 0.123131 0.345077 -2.303678
v -0.249363 0.106776 -1.353793
v -0.907926 -0.213606 -1.376074
v -1.525603 0.316891 -2.414389
v -0.717713 0.770998 -2.647501
v 0.085552 0.668636 -1.666753
v -0.840492 0.387215 -0.897433
v -1.675051 0.521395 -1.556162
v -1.307773 1.155957 -2.339346
v -0.423727 1.298295 -2.200856
v -0.661518 1.066187 -1.424118
vt 0.181819 0.000000
vt 0.272728 0.157461
vt 0.090910 0.157461
vt 0.363637 0.000000
vt 0.454546 0.157461
vt 0.909091 0.000000
vt 1.000000 0.157461
vt 0.818182 0.157461
vt 0.727273 0.000000
vt 0.636364 0.157461
vt 0.545455 0.000000
vt 0.363637 0.314921
vt 0.181819 0.314921
vt 0.909091 0.314921
vt 0.727273 0.314921
vt 0.545455 0.314921
vt 0.000000 0.314921
vt 0.272728 0.472382
vt 0.090910 0.472382
vt 0.818182 0.472382
vt 0.636364 0.472382
vt 0.454546 0.472382
vn 0.4962 -0.8679 -0.0231
vn 0.1910 -0.3600 -0.9132
vn 0.4366 -0.8993 0.0253
vn -0.6027 -0.7965 -0.0484
vn -0.0829 -0.3345 -0.9388
vn 0.5072 0.3747 -0.7761
vn 0.8866 -0.3892 0.2500
vn 0.2756 -0.6177 0.7365
vn -0.6970 -0.7154 0.0491
vn -0.3630 0.1761 -0.9150
vn 0.8390 0.5036 -0.2063
vn 0.6273 0.0586 0.7766
vn -0.5947 -0.4590 0.6600
vn -0.9377 0.2637 -0.2261
vn 0.0171 0.6407 -0.7676
vn 0.5280 0.7557 0.3875
vn 0.4842 0.4530 0.7485
vn -0.4207 0.6227 0.6598
vn -0.4727 0.7799 0.4103
vn -0.1894 0.9552 0.2274
usemtl Stone
s off
f 13/23/21 14/24/21 15/25/21
f 14/24/22 13/26/22 18/27/22
f 13/28/23 15/29/23 16/30/23
f 13/31/24 16/30/24 17/32/24
f 13/33/25 17/32/25 18/27/25
f 14/24/26 18/27/26 23/34/26
f 15/25/27 14/24/27 19/35/27
f 16/30/28 15/29/28 20/36/28
f 17/32/29 16/30/29 21/37/29
f 18/27/30 17/32/30 22/38/30
f 14/24/31 23/34/31 19/35/31
f 15/25/32 19/35/32 20/39/32
f 16/30/33 20/36/33 21/37/33
f 17/32/34 21/37/34 22/38/34
f 18/27/35 22/38/35 23/34/35
f 19/35/36 23/34/36 24/40/36
f 20/39/37 19/35/37 24/41/37
f 21/37/38 20/36/38 24/42/38
f 22/38/39 21/37/39 24/43/39
f 23/34/40 22/38/40 24/44/40
o Stone.008_Icosphere.007
v -2.195296 0.087101 -1.534958
v -2.292746 1.181008 -1.355126
v -1.447128 0.882393 -1.896956
v -1.387297 0.154621 -1.957078
v -1.888114 -0.336082 -0.839293
v -2.163341 0.544562 -0.590384
v -1.602679 1.367830 -1.381249
v -0.758627 0.525989 -1.709105
v -1.018084 -0.267174 -1.036801
v -1.562759 0.210398 -0.245478
v -1.661430 1.086447 -0.454710
v -1.005237 0.887591 -0.948276
vt 0.181819 0.000000
vt 0.272728 0.157461
vt 0.090910 0.157461
vt 0.363637 0.000000
vt 0.454546 0.157461
vt 0.909091 0.000000
vt 1.000000 0.157461
vt 0.818182 0.157461
vt 0.727273 0.000000
vt 0.636364 0.157461
vt 0.545455 0.000000
vt 0.363637 0.314921
vt 0.181819 0.314921
vt 0.909091 0.314921
vt 0.727273 0.314921
vt 0.545455 0.314921
vt 0.000000 0.314921
vt 0.272728 0.472382
vt 0.090910 0.472382
vt 0.818182 0.472382
vt 0.636364 0.472382
vt 0.454546 0.472382
vn -0.5132 0.0945 -0.8530
vn -0.9913 -0.1019 0.0829
vn -0.4651 0.0348 -0.8846
vn -0.1662 -0.8733 -0.4579
vn -0.9185 -0.3428 0.1971
vn -0.6835 0.5000 0.5318
vn -0.2105 0.6793 -0.7030
vn 0.3114 0.1036 -0.9446
vn -0.0208 -0.9120 -0.4097
vn -0.6115 -0.3863 0.6905
vn -0.2423 0.9325 0.2678
vn 0.5012 0.7004 -0.5081
vn 0.5771 -0.6296 -0.5201
vn 0.1981 -0.7729 0.6028
vn -0.4201 0.1658 0.8922
vn 0.4673 0.8373 0.2839
vn 0.6755 0.7265 -0.1263
vn 0.9456 -0.0353 0.3233
vn 0.8070 -0.0541 0.5881
vn 0.6292 0.2469 0.7370
usemtl Stone
s off
f 25/45/41 26/46/41 27/47/41
f 26/46/42 25/48/42 30/49/42
f 25/50/43 27/51/43 28/52/43
f 25/53/44 28/52/44 29/54/44
f 25/55/45 29/54/45 30/49/45
f 26/46/46 30/49/46 35/56/46
f 27/47/47 26/46/47 31/57/47
f 28/52/48 27/51/48 32/58/48
f 29/54/49 28/52/49 33/59/49
f 30/49/50 29/54/50 34/60/50
f 26/46/51 35/56/51 31/57/51
f 27/47/52 31/57/52 32/61/52
f 28/52/53 32/58/53 33/59/53
f 29/54/54 33/59/54 34/60/54
f 30/49/55 34/60/55 35/56/55
f 31/57/56 35/56/56 36/62/56
f 32/61/57 31/57/57 36/63/57
f 33/59/58 32/58/58 36/64/58
f 34/60/59 33/59/59 36/65/59
f 35/56/60 34/60/60 36/66/60
o Stone.007_Icosphere.006
v -2.418177 0.344536 1.385156
v -2.263384 1.033197 0.524775
v -1.854218 0.074371 0.419625
v -1.931539 -0.337903 1.020372
v -1.863138 0.500302 2.037124
v -1.854146 1.229521 1.419549
v -1.662183 0.754098 0.255633
v -1.220014 -0.300585 0.725464
v -1.210392 -0.048993 1.767111
v -1.213017 1.023559 1.790839
v -1.284320 1.328012 0.940427
v -0.999145 0.545974 0.796094
vt 0.181819 0.000000
vt 0.272728 0.157461
vt 0.090910 0.157461
vt 0.363637 0.000000
vt 0.454546 0.157461
vt 0.909091 0.000000
vt 1.000000 0.157461
vt 0.818182 0.157461
vt 0.727273 0.000000
vt 0.636364 0.157461
vt 0.545455 0.000000
vt 0.363637 0.314921
vt 0.181819 0.314921
vt 0.909091 0.314921
vt 0.727273 0.314921
vt 0.545455 0.314921
vt 0.000000 0.314921
vt 0.272728 0.472382
vt 0.090910 0.472382
vt 0.818182 0.472382
vt 0.636364 0.472382
vt 0.454546 0.472382
vn -0.8544 -0.3197 -0.4096
vn -0.8184 0.5114 0.2621
vn -0.8372 -0.3946 -0.3786
vn -0.4900 -0.6562 0.5739
vn -0.7313 0.4460 0.5160
vn -0.2487 0.9636 -0.0977
vn -0.4416 -0.0906 -0.8926
vn -0.1953 -0.7967 -0.5719
vn -0.3468 -0.7121 0.6104
vn -0.2269 0.6310 0.7418
vn 0.0536 0.7506 -0.6586
vn 0.2668 -0.2966 -0.9170
vn 0.1462 -0.9619 0.2310
vn 0.3680 -0.0197 0.9296
vn 0.1124 0.9385 0.3266
vn 0.6547 0.3613 -0.6640
vn 0.6112 -0.0939 -0.7859
vn 0.9652 -0.2562 0.0530
vn 0.9774 -0.0023 0.2112
vn 0.9411 0.3356 0.0412
usemtl Stone
s off
f 37/67/61 38/68/61 39/69/61
f 38/68/62 37/70/62 42/71/62
f 37/72/63 39/73/63 40/74/63
f 37/75/64 40/74/64 41/76/64
f 37/77/65 41/76/65 42/71/65
f 38/68/66 42/71/66 47/78/66
f 39/69/67 38/68/67 43/79/67
f 40/74/68 39/73/68 44/80/68
f 41/76/69 40/74/69 45/81/69
f 42/71/70 41/76/70 46/82/70
f 38/68/71 47/78/71 43/79/71
f 39/69/72 43/79/72 44/83/72
f 40/74/73 44/80/73 45/81/73
f 41/76/74 45/81/74 46/82/74
f 42/71/75 46/82/75 47/78/75
f 43/79/76 47/78/76 48/84/76
f 44/83/77 43/79/77 48/85/77
f 45/81/78 44/80/78 48/86/78
f 46/82/79 45/81/79 48/87/79
f 47/78/80 46/82/80 48/88/80
o Stone.006_Icosphere.005
v -0.491403 0.527363 2.573934
v -1.522392 0.462931 2.159953
v -0.857683 -0.282876 1.844112
v -0.176557 -0.185359 2.095911
v -0.006567 1.121446 2.162360
v -0.928026 1.240384 1.938737
v -1.383688 0.119041 1.548171
v -0.242196 -0.306514 1.337199
v 0.324735 0.582276 1.529710
v -0.378114 1.385498 1.421183
v -1.197611 1.029664 1.270244
v -0.708088 0.378365 1.046823
vt 0.181819 0.000000
vt 0.272728 0.157461
vt 0.090910 0.157461
vt 0.363637 0.000000
vt 0.454546 0.157461
vt 0.909091 0.000000
vt 1.000000 0.157461
vt 0.818182 0.157461
vt 0.727273 0.000000
vt 0.636364 0.157461
vt 0.545455 0.000000
vt 0.363637 0.314921
vt 0.181819 0.314921
vt 0.909091 0.314921
vt 0.727273 0.314921
vt 0.545455 0.314921
vt 0.000000 0.314921
vt 0.272728 0.472382
vt 0.090910 0.472382
vt 0.818182 0.472382
vt 0.636364 0.472382
vt 0.454546 0.472382
vn -0.2746 -0.5720 0.7729
vn -0.3504 0.4942 0.7956
vn -0.1985 -0.6049 0.7712
vn 0.7289 -0.1290 0.6724
vn -0.1073 0.6239 0.7741
vn -0.7731 0.6238 0.1151
vn -0.6713 -0.7007 0.2416
vn 0.0856 -0.9850 0.1499
vn 0.8257 -0.1353 0.5477
vn 0.0460 0.9481 0.3147
vn -0.9542 0.1101 -0.2782
vn -0.3841 -0.8180 -0.4282
vn 0.8417 -0.5398 0.0134
vn 0.7540 0.6395 -0.1501
vn -0.3728 0.9175 -0.1389
vn -0.5560 -0.1366 -0.8199
vn -0.3469 -0.5562 -0.7552
vn 0.4356 -0.0837 -0.8963
vn 0.3796 0.2105 -0.9009
vn 0.0250 0.3411 -0.9397
usemtl Stone
s off
f 49/89/81 50/90/81 51/91/81
f 50/90/82 49/92/82 54/93/82
f 49/94/83 51/95/83 52/96/83
f 49/97/84 52/96/84 53/98/84
f 49/99/85 53/98/85 54/93/85
f 50/90/86 54/93/86 59/100/86
f 51/91/87 50/90/87 55/101/87
f 52/96/88 51/95/88 56/102/88
f 53/98/89 52/96/89 57/103/89
f 54/93/90 53/98/90 58/104/90
f 50/90/91 59/100/91 55/101/91
f 51/91/92 55/101/92 56/105/92
f 52/96/93 56/102/93 57/103/93
f 53/98/94 57/103/94 58/104/94
f 54/93/95 58/104/95 59/100/95
f 55/101/96 59/100/96 60/106/96
f 56/105/97 55/101/97 60/107/97
f 57/103/98 56/102/98 60/108/98
f 58/104/99 57/103/99 60/109/99
f 59/100/100 58/104/100 60/110/100
o Stone.005_Icosphere.004
v 1.440222 1.105154 0.015730
v 2.209079 1.085543 -0.788598
v 1.645802 0.209273 -0.675950
v 1.182596 0.236996 -0.108925
v 1.783900 0.975157 0.804641
v 2.476133 1.168845 0.174928
v 2.336280 0.382034 -0.814490
v 1.635896 -0.385791 -0.144776
v 1.714230 0.083117 0.815644
v 2.601996 0.682613 0.757217
v 2.927990 0.628982 -0.086481
v 2.450046 -0.067360 -0.066068
vt 0.181819 0.000000
vt 0.272728 0.157461
vt 0.090910 0.157461
vt 0.363637 0.000000
vt 0.454546 0.157461
vt 0.909091 0.000000
vt 1.000000 0.157461
vt 0.818182 0.157461
vt 0.727273 0.000000
vt 0.636364 0.157461
vt 0.545455 0.000000
vt 0.363637 0.314921
vt 0.181819 0.314921
vt 0.909091 0.314921
vt 0.727273 0.314921
vt 0.545455 0.314921
vt 0.000000 0.314921
vt 0.272728 0.472382
vt 0.090910 0.472382
vt 0.818182 0.472382
vt 0.636364 0.472382
vt 0.454546 0.472382
vn -0.6732 0.3489 -0.6520
vn -0.0501 0.9961 -0.0722
vn -0.7303 0.3045 -0.6115
vn -0.8851 0.2025 0.4190
vn -0.0908 0.9755 0.2003
vn 0.6803 0.6896 -0.2482
vn -0.1968 0.0005 -0.9804
vn -0.6934 -0.4734 -0.5433
vn -0.8592 0.0734 0.5063
vn 0.3057 0.7623 0.5705
vn 0.7394 0.1578 -0.6545
vn 0.0170 -0.6660 -0.7458
vn -0.7516 -0.5665 0.3379
vn 0.0606 0.0076 0.9981
vn 0.7987 0.5355 0.2745
vn 0.7404 -0.5206 -0.4252
vn 0.3542 -0.7770 -0.5204
vn 0.3004 -0.8665 0.3986
vn 0.4976 -0.6850 0.5322
vn 0.7813 -0.5264 0.3353
usemtl Stone
s off
f 61/111/101 62/112/101 63/113/101
f 62/112/102 61/114/102 66/115/102
f 61/116/103 63/117/103 64/118/103
f 61/119/104 64/118/104 65/120/104
f 61/121/105 65/120/105 66/115/105
f 62/112/106 66/115/106 71/122/106
f 63/113/107 62/112/107 67/123/107
f 64/118/108 63/117/108 68/124/108
f 65/120/109 64/118/109 69/125/109
f 66/115/110 65/120/110 70/126/110
f 62/112/111 71/122/111 67/123/111
f 63/113/112 67/123/112 68/127/112
f 64/118/113 68/124/113 69/125/113
f 65/120/114 69/125/114 70/126/114
f 66/115/115 70/126/115 71/122/115
f 67/123/116 71/122/116 72/128/116
f 68/127/117 67/123/117 72/129/117
f 69/125/118 68/124/118 72/130/118
f 70/126/119 69/125/119 72/131/119
f 71/122/120 70/126/120 72/132/120
o Stone.004_Icosphere.003
v -2.366750 -0.217478 -0.329702
v -1.498926 0.357161 -0.723579
v -1.467865 0.129528 0.298692
v -2.074055 -0.206569 0.536217
v -3.060570 0.288145 -0.187036
v -2.419456 0.756217 -0.719128
v -1.296751 0.692609 -0.124934
v -1.844469 0.405254 0.945600
v -2.872411 0.506466 0.660101
v -2.855472 1.133430 -0.210283
v -1.991265 1.299206 -0.426251
v -1.903196 1.077404 0.384174
vt 0.181819 0.000000
vt 0.272728 0.157461
vt 0.090910 0.157461
vt 0.363637 0.000000
vt 0.454546 0.157461
vt 0.909091 0.000000
vt 1.000000 0.157461
vt 0.818182 0.157461
vt 0.727273 0.000000
vt 0.636364 0.157461
vt 0.545455 0.000000
vt 0.363637 0.314921
vt 0.181819 0.314921
vt 0.909091 0.314921
vt 0.727273 0.314921
vt 0.545455 0.314921
vt 0.000000 0.314921
vt 0.272728 0.472382
vt 0.090910 0.472382
vt 0.818182 0.472382
vt 0.636364 0.472382
vt 0.454546 0.472382
vn 0.4740 -0.8563 -0.2051
vn -0.1665 -0.3739 -0.9124
vn 0.4387 -0.8881 -0.1371
vn -0.5508 -0.8112 0.1964
vn -0.4296 -0.3553 -0.8302
vn 0.1562 0.3706 -0.9155
vn 0.9253 -0.3632 -0.1090
vn 0.5571 -0.5960 0.5783
vn -0.6024 -0.7304 0.3220
vn -0.6936 0.1489 -0.7048
vn 0.6787 0.5188 -0.5199
vn 0.8768 0.0890 0.4725
vn -0.2794 -0.4593 0.8432
vn -0.9595 0.2370 0.1520
vn -0.3000 0.6252 -0.7205
vn 0.6143 0.7756 0.1455
vn 0.7225 0.4793 0.4983
vn -0.1509 0.6259 0.7652
vn -0.3000 0.7768 0.5537
vn -0.1147 0.9549 0.2738
usemtl Stone
s off
f 73/133/121 74/134/121 75/135/121
f 74/134/122 73/136/122 78/137/122
f 73/138/123 75/139/123 76/140/123
f 73/141/124 76/140/124 77/142/124
f 73/143/125 77/142/125 78/137/125
f 74/134/126 78/137/126 83/144/126
f 75/135/127 74/134/127 79/145/127
f 76/140/128 75/139/128 80/146/128
f 77/142/129 76/140/129 81/147/129
f 78/137/130 77/142/130 82/148/130
f 74/134/131 83/144/131 79/145/131
f 75/135/132 79/145/132 80/149/132
f 76/140/133 80/146/133 81/147/133
f 77/142/134 81/147/134 82/148/134
f 78/137/135 82/148/135 83/144/135
f 79/145/136 83/144/136 84/150/136
f 80/149/137 79/145/137 84/151/137
f 81/147/138 80/146/138 84/152/138
f 82/148/139 81/147/139 84/153/139
f 83/144/140 82/148/140 84/154/140
o Stone.003_Icosphere.002
v -0.177203 0.010036 -1.918090
v 0.783073 -0.310707 -2.380112
v 0.840105 0.000245 -1.381175
v 0.201918 0.249533 -1.121525
v -0.400535 0.819147 -2.147996
v 0.295184 0.497866 -2.718955
v 1.239609 0.070169 -1.982263
v 0.813017 0.706942 -1.012134
v 0.016202 1.247814 -1.482199
v 0.258859 1.241662 -2.527196
v 1.002842 0.738045 -2.644822
v 1.073521 0.919892 -1.822826
vt 0.181819 0.000000
vt 0.272728 0.157461
vt 0.090910 0.157461
vt 0.363637 0.000000
vt 0.454546 0.157461
vt 0.909091 0.000000
vt 1.000000 0.157461
vt 0.818182 0.157461
vt 0.727273 0.000000
vt 0.636364 0.157461
vt 0.545455 0.000000
vt 0.363637 0.314921
vt 0.181819 0.314921
vt 0.909091 0.314921
vt 0.727273 0.314921
vt 0.545455 0.314921
vt 0.000000 0.314921
vt 0.272728 0.472382
vt 0.090910 0.472382
vt 0.818182 0.472382
vt 0.636364 0.472382
vt 0.454546 0.472382
vn -0.1683 -0.9384 0.3017
vn -0.5027 -0.5741 -0.6462
vn -0.2038 -0.9066 0.3696
vn -0.8832 -0.1146 0.4548
vn -0.6855 -0.3678 -0.6284
vn 0.1929 -0.2779 -0.9410
vn 0.4958 -0.8368 0.2322
vn 0.1802 -0.4499 0.8747
vn -0.8553 0.0278 0.5174
vn -0.5738 0.1781 -0.7994
vn 0.7574 -0.3045 -0.5776
vn 0.8213 -0.2390 0.5180
vn -0.3545 0.2587 0.8986
vn -0.5906 0.7944 -0.1418
vn 0.0164 0.2504 -0.9680
vn 0.9681 0.2137 -0.1305
vn 0.9355 0.1205 0.3323
vn 0.3780 0.8584 0.3469
vn 0.3154 0.9466 0.0677
vn 0.5211 0.8228 -0.2268
usemtl Stone
s off
f 85/155/141 86/156/141 87/157/141
f 86/156/142 85/158/142 90/159/142
f 85/160/143 87/161/143 88/162/143
f 85/163/144 88/162/144 89/164/144
f 85/165/145 89/164/145 90/159/145
f 86/156/146 90/159/146 95/166/146
f 87/157/147 86/156/147 91/167/147
f 88/162/148 87/161/148 92/168/148
f 89/164/149 88/162/149 93/169/149
f 90/159/150 89/164/150 94/170/150
f 86/156/151 95/166/151 91/167/151
f 87/157/152 91/167/152 92/171/152
f 88/162/153 92/168/153 93/169/153
f 89/164/154 93/169/154 94/170/154
f 90/159/155 94/170/155 95/166/155
f 91/167/156 95/166/156 96/172/156
f 92/171/157 91/167/157 96/173/157
f 93/169/158 92/168/158 96/174/158
f 94/170/159 93/169/159 96/175/159
f 95/166/160 94/170/160 96/176/160
o Stone.002_Icosphere.001
v 1.014205 -0.104431 -1.280638
v 1.115426 0.559826 -0.393516
v 0.913886 1.041329 -1.302007
v 0.900498 0.582412 -1.873025
v 1.785815 -0.355681 -1.595098
v 1.895750 0.023088 -0.724644
v 1.327408 1.160860 -0.718474
v 1.341939 1.209498 -1.953801
v 1.904058 0.322358 -2.166929
v 2.439294 0.111922 -1.261293
v 2.182487 0.710932 -0.631839
v 1.956675 1.124479 -1.333073
vt 0.181819 0.000000
vt 0.272728 0.157461
vt 0.090910 0.157461
vt 0.363637 0.000000
vt 0.454546 0.157461
vt 0.909091 0.000000
vt 1.000000 0.157461
vt 0.818182 0.157461
vt 0.727273 0.000000
vt 0.636364 0.157461
vt 0.545455 0.000000
vt 0.363637 0.314921
vt 0.181819 0.314921
vt 0.909091 0.314921
vt 0.727273 0.314921
vt 0.545455 0.314921
vt 0.000000 0.314921
vt 0.272728 0.472382
vt 0.090910 0.472382
vt 0.818182 0.472382
vt 0.636364 0.472382
vt 0.454546 0.472382
vn -0.9813 -0.0827 0.1739
vn -0.2671 -0.7565 0.5969
vn -0.9921 -0.0852 0.0917
vn -0.4606 -0.6222 -0.6330
vn -0.1274 -0.9035 0.4092
vn 0.2429 -0.2285 0.9428
vn -0.7523 0.4983 0.4310
vn -0.7780 0.4985 -0.3824
vn -0.3633 -0.5628 -0.7425
vn 0.4435 -0.8410 0.3099
vn 0.1376 0.4331 0.8908
vn -0.3209 0.9465 0.0335
vn -0.2654 0.0629 -0.9621
vn 0.6569 -0.5497 -0.5160
vn 0.6827 -0.3696 0.6303
vn 0.4044 0.8388 0.3644
vn 0.0969 0.9945 0.0403
vn 0.6354 0.5361 -0.5558
vn 0.8351 0.3691 -0.4078
vn 0.9031 0.4277 -0.0386
usemtl Stone
s off
f 97/177/161 98/178/161 99/179/161
f 98/178/162 97/180/162 102/181/162
f 97/182/163 99/183/163 100/184/163
f 97/185/164 100/184/164 101/186/164
f 97/187/165 101/186/165 102/181/165
f 98/178/166 102/181/166 107/188/166
f 99/179/167 98/178/167 103/189/167
f 100/184/168 99/183/168 104/190/168
f 101/186/169 100/184/169 105/191/169
f 102/181/170 101/186/170 106/192/170
f 98/178/171 107/188/171 103/189/171
f 99/179/172 103/189/172 104/193/172
f 100/184/173 104/190/173 105/191/173
f 101/186/174 105/191/174 106/192/174
f 102/181/175 106/192/175 107/188/175
f 103/189/176 107/188/176 108/194/176
f 104/193/177 103/189/177 108/195/177
f 105/191/178 104/190/178 108/196/178
f 106/192/179 105/191/179 108/197/179
f 107/188/180 106/192/180 108/198/180
o Stone.001_Icosphere
v 0.769013 0.483955 0.977776
v 1.294326 1.427760 1.245637
v 1.568051 0.998675 0.329787
v 1.240208 0.355392 0.205083
v 1.100062 -0.207071 1.390429
v 1.416645 0.598065 1.796350
v 1.901660 1.333968 0.879407
v 2.006046 0.367256 0.115745
v 1.715651 -0.423524 0.778131
v 1.865090 -0.025732 1.763204
v 2.118731 0.840691 1.686041
v 2.315556 0.557774 0.914706
vt 0.181819 0.000000
vt 0.272728 0.157461
vt 0.090910 0.157461
vt 0.363637 0.000000
vt 0.454546 0.157461
vt 0.909091 0.000000
vt 1.000000 0.157461
vt 0.818182 0.157461
vt 0.727273 0.000000
vt 0.636364 0.157461
vt 0.545455 0.000000
vt 0.363637 0.314921
vt 0.181819 0.314921
vt 0.909091 0.314921
vt 0.727273 0.314921
vt 0.545455 0.314921
vt 0.000000 0.314921
vt 0.272728 0.472382
vt 0.090910 0.472382
vt 0.818182 0.472382
vt 0.636364 0.472382
vt 0.454546 0.472382
vn -0.7136 0.5279 -0.4606
vn -0.7735 0.2674 0.5747
vn -0.7187 0.4663 -0.5158
vn -0.7411 -0.5684 -0.3573
vn -0.7839 -0.0048 0.6209
vn -0.0575 0.5462 0.8357
vn -0.1376 0.8805 -0.4536
vn -0.1161 0.2457 -0.9624
vn -0.6274 -0.6722 -0.3931
vn -0.3580 -0.3043 0.8827
vn 0.3747 0.8324 0.4082
vn 0.5017 0.5689 -0.6516
vn -0.0812 -0.6223 -0.7785
vn 0.0404 -0.9286 0.3689
vn 0.1390 0.0474 0.9892
vn 0.8802 0.4717 0.0516
vn 0.8113 0.4138 -0.4130
vn 0.8467 -0.4882 -0.2116
vn 0.8448 -0.5283 0.0852
vn 0.9161 -0.2395 0.3216
usemtl Stone
s off
f 109/199/181 110/200/181 111/201/181
f 110/200/182 109/202/182 114/203/182
f 109/204/183 111/205/183 112/206/183
f 109/207/184 112/206/184 113/208/184
f 109/209/185 113/208/185 114/203/185
f 110/200/186 114/203/186 119/210/186
f 111/201/187 110/200/187 115/211/187
f 112/206/188 111/205/188 116/212/188
f 113/208/189 112/206/189 117/213/189
f 114/203/190 113/208/190 118/214/190
f 110/200/191 119/210/191 115/211/191
f 111/201/192 115/211/192 116/215/192
f 112/206/193 116/212/193 117/213/193
f 113/208/194 117/213/194 118/214/194
f 114/203/195 118/214/195 119/210/195
f 115/211/196 119/210/196 120/216/196
f 116/215/197 115/211/197 120/217/197
f 117/213/198 116/212/198 120/218/198
f 118/214/199 117/213/199 120/219/199
f 119/210/200 118/214/200 120/220/200
o Ash_Circle
v 0.000000 0.000000 -1.769991
v -0.345308 0.000000 -1.735981
v -0.677346 0.000000 -1.635259
v -0.983355 0.000000 -1.471694
v -1.251573 0.000000 -1.251573
v -1.471694 0.000000 -0.983355
v -1.635259 0.000000 -0.677346
v -1.735981 0.000000 -0.345308
v -1.769991 0.000000 0.000000
v -1.735981 0.000000 0.345308
v -1.635259 0.000000 0.677346
v -1.471694 0.000000 0.983354
v -1.251573 0.000000 1.251573
v -0.983354 0.000000 1.471694
v -0.677346 0.000000 1.635259
v -0.345308 0.000000 1.735981
v 0.000000 0.000000 1.769991
v 0.345308 0.000000 1.735981
v 0.677346 0.000000 1.635259
v 0.983355 0.000000 1.471694
v 1.251573 0.000000 1.251573
v 1.471694 0.000000 0.983355
v 1.635259 0.000000 0.677347
v 1.735981 0.000000 0.345308
v 1.769991 0.000000 -0.000000
v 1.735981 0.000000 -0.345308
v 1.635259 0.000000 -0.677347
v 1.471694 0.000000 -0.983354
v 1.251573 0.000000 -1.251573
v 0.983355 0.000000 -1.471694
v 0.677346 0.000000 -1.635259
v 0.345308 0.000000 -1.735981
vt 0.000000 0.000000
vt 0.000000 0.000000
vt 0.000000 0.000000
vt 0.000000 0.000000
vt 0.000000 0.000000
vt 0.000000 0.000000
vt 0.000000 0.000000
vt 0.000000 0.000000
vt 0.000000 0.000000
vt 0.000000 0.000000
vt 0.000000 0.000000
vt 0.000000 0.000000
vt 0.000000 0.000000
vt 0.000000 0.000000
vt 0.000000 0.000000
vt 0.000000 0.000000
vt 0.000000 0.000000
vt 0.000000 0.000000
vt 0.000000 0.000000
vt 0.000000 0.000000
vt 0.000000 0.000000
vt 0.000000 0.000000
vt 0.000000 0.000000
vt 0.000000 0.000000
vt 0.000000 0.000000
vt 0.000000 0.000000
vt 0.000000 0.000000
vt 0.000000 0.000000
vt 0.000000 0.000000
vt 0.000000 0.000000
vt 0.000000 0.000000
vt 0.000000 0.000000
vn 0.0000 1.0000 0.0000
usemtl Ash
s off
f 122/221/201 123/222/201 124/223/201 125/224/201 126/225/201 127/226/201 128/227/201 129/228/201 130/229/201 131/230/201 132/231/201 133/232/201 134/233/201 135/234/201 136/235/201 137/236/201 138/237/201 139/238/201 140/239/201 141/240/201 142/241/201 143/242/201 144/243/201 145/244/201 146/245/201 147/246/201 148/247/201 149/248/201 150/249/201 151/250/201 152/251/201 121/252/201
